<svg fill="none" viewBox="0 0 395 307">
  <g fill="#fff" filter="url(#a)">
    <path d="M199.824 16.539c-.526.292-1.168.905-1.431 1.314-.263.41-.848.935-1.315 1.169-2.747 1.43-2.893 5.608-.234 7.097l.847.497v9.492h-8.357l-.672-.905c-1.315-1.752-3.506-2.512-5.084-1.694-.906.467-2.25 1.752-2.25 2.161 0 .176-.468.555-1.023.818-1.549.73-2.25 2.045-2.104 3.973.088 1.43.234 1.694 1.257 2.57 1.548 1.314 1.782 1.548 2.629 2.629 1.461 1.869 4.559 1.898 6.078.058.409-.497.76-1.022.76-1.168 0-.146 1.899-.263 4.383-.263h4.383v25.265l-.847.496c-2.659 1.49-2.513 5.667.234 7.098.467.234 1.052.76 1.315 1.168.701 1.052 2.191 1.899 3.331 1.899 1.373 0 2.951-.818 3.565-1.84.292-.468.935-1.11 1.431-1.402 2.689-1.636 2.718-5.053.059-7.01l-.906-.672V44.287h8.62l.643.993c.906 1.402 2.893 2.132 4.442 1.665.964-.263 2.629-1.694 2.98-2.57.058-.117.497-.439.964-.672 1.228-.614 2.017-2.133 1.987-3.68 0-1.549-.613-2.57-1.957-3.36-.556-.32-1.228-1.022-1.549-1.548-1.49-2.54-5.552-2.453-7.013.146l-.497.847-4.237-.058-4.237-.087-.088-4.586-.058-4.557.994-.613c2.6-1.607 2.483-5.462-.205-7.04-.526-.291-1.169-.934-1.432-1.401-1.023-1.694-3.652-2.308-5.406-1.227Zm88.305 60.958c-.789.233-1.782.73-2.191 1.08-.409.38-3.653 1.753-7.218 3.067-5.464 2.015-6.604 2.337-7.13 2.074-.818-.438-1.899-.146-2.659.73-.438.497-.76.643-1.081.467-.584-.32-13.821 4.907-14.961 5.871l-.789.672.585 1.84.555 1.84 1.081-.204c.584-.117 4.149-1.373 7.889-2.833 4.91-1.928 6.838-2.834 6.955-3.213.146-.41.351-.497.906-.35 1.052.262 2.337-.351 2.63-1.227.204-.585 1.315-1.14 6.808-3.476 4.033-1.665 6.984-2.746 7.597-2.746.585 0 1.666-.38 2.543-.876l1.49-.847-.292-1.198c-.351-1.314-.497-1.343-2.718-.671Zm-56.834 14.691c-4.909.643-9.146 1.14-9.409 1.14-.497.029-.526.817-.526 12.325 0 11.567.029 12.268.526 12.122.263-.059 4.734-.643 9.935-1.256l9.409-1.081v-2.716c0-1.49-.088-2.717-.205-2.717-.146 0-2.863.322-6.078.73-3.214.409-6.077.731-6.34.731-.439 0-.526-.292-.526-1.986v-2.016l5.785-.701 5.757-.701.087-2.716c.03-1.461.03-2.687-.029-2.687-.292 0-9.847 1.197-10.636 1.314l-.964.175v-4.06l.964-.146c.497-.087 3.39-.467 6.428-.817l5.465-.643v-2.746c0-1.986-.088-2.716-.351-2.687-.204.03-4.383.526-9.292 1.14Zm-22.705 2.717-2.425.292v4.907c0 2.716-.117 4.936-.234 4.936-.35 0-7.071.847-8.152 1.022l-.965.175v-9.726l-2.396.205c-1.344.087-2.893.292-3.448.409l-1.022.204-.088 11.8c-.029 6.513 0 11.975.058 12.151.088.233.994.204 3.156-.059 1.636-.204 3.185-.379 3.39-.409.263 0 .35-1.139.35-4.615v-4.614l4.179-.497c2.279-.263 4.383-.497 4.675-.497.439 0 .497.409.497 4.557v4.556l.964-.146a40.586 40.586 0 0 1 2.689-.35c.964-.088 2.045-.234 2.425-.321l.643-.117V94.525l-.935.03a58.09 58.09 0 0 0-3.361.35Zm-36.321 4.41-9.789 1.227-.088 2.833-.087 2.862.964-.146c1.519-.263 5.493-.759 5.961-.759.351 0 .409 1.431.409 9.346 0 7.303.088 9.347.38 9.318.175 0 1.666-.175 3.273-.351l2.922-.35.087-9.434c.03-5.17.117-9.405.147-9.405.058 0 1.665-.205 3.564-.439 1.929-.233 3.536-.438 3.595-.438.029 0 .058-1.256.058-2.774V98.03l-.789.029c-.467.03-5.23.584-10.607 1.256Zm-59.522.321-.293 1.286 1.607.467c.994.292 2.134.409 2.952.321.906-.117 3.36.205 7.48.935 5.552.993 6.166 1.168 6.429 1.752.35.818 1.432 1.139 2.513.731.613-.234.876-.205 1.227.146.526.525 12.536 2.453 14.494 2.336 1.373-.087 1.402-.117 2.191-3.271.292-1.168-.847-1.548-8.357-2.687-5.523-.876-6.896-.993-7.364-.701-.467.292-.613.263-.818-.117-.409-.73-2.191-.935-2.893-.292-.584.526-.789.526-7.071-.292-4.792-.584-6.721-.964-7.393-1.373-.643-.38-1.461-.555-2.659-.555h-1.753l-.292 1.314Zm142.538 5.287c-1.958.847-1.987 1.051-.292 1.869 1.87.877 2.191 1.724.993 2.512-.73.497-.818.468-2.074-.117-1.841-.905-1.987-.847-1.754.555.263 1.636.614 2.22 1.724 2.892 1.52.935 3.624.789 5.172-.321l1.257-.906 11.075.76 11.045.759 1.14 1.168c1.431 1.519 3.126 1.694 5.405.526l1.169-.613-1.665-.818c-1.9-.964-2.25-1.899-.935-2.6.613-.321.905-.292 2.191.234l1.461.613v-1.08c0-3.388-3.945-4.936-6.779-2.658l-1.081.847-11.192-.76-11.191-.759-.701-.876c-.76-.964-2.221-1.694-3.302-1.694-.38.029-1.111.204-1.666.467Zm-110.191 13.582c-1.111.701-1.637 1.256-2.016 2.161-.205.497-2.397 1.256-11.513 4.06l-11.25 3.476-1.023-.467c-3.098-1.49-6.546.496-6.867 3.943-.146 1.665-.263 1.635 1.899.175 1.023-.672 1.374-.789 1.841-.526 1.081.584.731 1.607-.876 2.629-.789.526-1.461 1.051-1.461 1.168 0 .322 1.665.876 2.571.876 1.666 0 3.945-1.664 4.5-3.271.058-.117 5.172-1.811 11.367-3.709l11.279-3.505 1.227.613c3.01 1.49 6.75-1.051 6.75-4.586v-1.022l-1.578 1.052c-1.87 1.226-2.629 1.226-2.746-.03-.059-.759.117-.993 1.431-1.84 1.812-1.197 1.608-1.577-.818-1.723-1.373-.088-1.899 0-2.717.526Zm194.493 10.34c-2.864 1.168-4.909 3.592-5.844 6.864-.234.876-.585 3.855-.76 6.63-.292 4.819-.994 9.434-2.367 15.276-.584 2.541-.614 2.921-.234 4.06.293.963.672 1.431 1.432 1.811 1.344.73 3.565.701 5.114-.03 1.607-.788 3.535-3.738 6.691-10.281 5.318-10.924 7.101-18.138 5.406-21.818l-.584-1.315-5.611 5.608c-3.097 3.096-5.756 5.608-5.902 5.608-.146 0 2.279-2.57 5.406-5.725l5.698-5.695-.819-.731-.847-.701-1.49 1.227-1.52 1.256.965-1.11c.496-.613.935-1.226.935-1.373 0-.613-3.887-.292-5.669.439Zm6.195 14.224c-.994 1.198-1.461 1.46-1.607.905-.059-.233 2.133-2.132 2.454-2.132.088 0-.292.555-.847 1.227Zm-3.624 3.593c-.117.233-.321.438-.467.438-.176 0-.146-.176.058-.438.205-.234.409-.439.468-.439.058 0 .029.205-.059.439Zm-6.516.817c-.292.263-.321.234-.146-.175.088-.292.263-.438.351-.35.087.087 0 .321-.205.525Zm9.321-.525c0 .058-.292.292-.642.467-.614.321-.643.321-.263-.117.38-.467.905-.672.905-.35Zm-6.603 1.635c-.702.789-.848.468-.234-.467.292-.467.584-.672.643-.467.058.204-.117.613-.409.934Zm4.909 2.95c-.205.205-.351.234-.351.059 0-.409.351-.76.555-.555.059.087-.029.321-.204.496Zm-6.926 3.739c-.467.497-.964.876-1.139.876-.146 0 .146-.467.701-1.022.526-.555 1.052-.935 1.14-.876.058.087-.234.555-.702 1.022Zm4.53 2.921c0 .146-.147.292-.322.292-.146 0-.204-.146-.117-.292.088-.175.234-.292.322-.292.058 0 .117.117.117.292Zm-128.572-22.491c-6.282 1.315-13.178 8.85-17.853 19.511-1.315 3.038-3.565 9.23-3.916 10.837l-.204.993 1.11-.847 1.139-.818-1.198 1.314c-1.607 1.694-1.665 1.87-2.6 5.959-.409 1.928-.818 3.68-.906 3.884-.088.263.058.322.467.205.468-.146.585-.058.585.555 0 .555-1.14 1.752-5.289 5.579-2.922 2.658-5.377 4.761-5.464 4.673-.088-.088.876-1.256 2.162-2.57a339.787 339.787 0 0 0 3.477-3.681l1.169-1.256-2.191.205c-4.062.35-5.582 1.606-6.137 4.965-.38 2.279.029 4.177 1.052 5.083.818.671.906.701 4.471.525l3.623-.204-.175 2.95-.146 2.95.76-.701.789-.672-.789.906-.819.876v9.171h-.876c-1.286 0-2.104.643-4.354 3.476-4.12 5.141-10.841 10.953-10.841 9.376 0-.175-.818.555-1.782 1.606-.994 1.052-1.929 1.899-2.104 1.899-.205 0 .672-1.023 1.928-2.278l2.25-2.249v-1.841c0-1.957-.789-4.761-1.841-6.484-.789-1.314-4.032-5.666-6.224-8.324-2.045-2.512-2.746-3.943-2.746-5.842 0-1.928.379-3.213 1.928-6.601.701-1.548 1.374-3.417 1.461-4.147.176-1.198.117-1.344-.584-1.811-1.227-.818-5.932-.497-8.24.555-2.952 1.343-3.565 2.161-6.721 9.2-5.348 11.83-8.62 17.671-10.344 18.577-.439.233-2.396 2.307-4.325 4.585-3.799 4.528-6.253 7.01-8.123 8.179-.643.409-1.754 1.431-2.455 2.249-.672.847-1.315 1.431-1.402 1.343-.088-.087.467-.818 1.256-1.606.906-.935 1.198-1.373.847-1.285-1.022.262-2.162-.409-2.659-1.548-.409-1.023-.409-1.432.059-5.199.292-2.25.555-4.411.584-4.82.059-.409.146-.935.234-1.168.204-.526 1.081-4.878 1.081-5.316 0-.175-1.402 1.051-3.156 2.716-1.724 1.665-3.857 3.622-4.733 4.294-.877.701.584-.876 3.301-3.505l4.88-4.761.585-2.921c1.169-5.637 1.49-8.587 1.022-9.668-.496-1.197-1.461-1.781-2.074-1.256-.351.292-.439.292-.351-.029.059-.234-.146-.467-.467-.526-.38-.087-1.491.877-3.887 3.418-1.87 1.957-3.448 3.475-3.535 3.388-.088-.088 1.314-1.665 3.155-3.505 1.841-1.84 3.215-3.359 3.01-3.359-.175 0-1.373.204-2.63.438-1.256.234-2.367.438-2.454.438-.088 0-.322-.496-.497-1.11-.555-1.84-1.257-2.249-3.682-2.22-3.682.059-8.036 1.607-12.185 4.382-2.191 1.431-6.808 5.637-7.334 6.659l-.322.613.702-.613c.38-.321 1.548-1.285 2.6-2.161l1.9-1.578-2.397 2.483c-1.344 1.344-3.01 2.921-3.71 3.476-1.52 1.197-3.536 4.381-5.114 8.061-1.841 4.265-1.812 4.323.672 1.87 1.227-1.198 2.22-2.074 2.22-1.928 0 .117-1.11 1.373-2.483 2.804-2.688 2.775-3.302 3.943-1.169 2.22 1.753-1.461 1.666-1.052-.146.642-1.344 1.256-1.49 1.519-1.753 3.272-.585 3.826-.234 11.04.584 11.537.117.088 2.104-1.957 4.412-4.527 2.309-2.571 4.296-4.674 4.442-4.674.789 0-.35 1.49-4.178 5.433-2.397 2.512-4.384 4.703-4.384 4.878 0 .818 1.841 3.417 3.331 4.819 2.25 2.016 4.238 2.746 7.627 2.775 5.727.058 10.783-2.862 14.523-8.354l1.139-1.694.877 1.724c1.023 2.044 3.214 4.235 5.172 5.111 1.929.876 5.406.847 7.685-.058 2.075-.789 4.851-2.571 7.13-4.557.964-.847 2.338-1.782 3.068-2.103 3.01-1.314 10.549-10.632 14.757-18.284.789-1.402 1.519-2.541 1.636-2.541.117 0 .993.905 1.899 2.044l1.695 2.045.731-.672.759-.642-.672.759-.643.759 1.023 1.724c1.169 1.898 1.9 4.089 1.9 5.578v.964h-3.186c-5.259 0-7.948 1.169-9.672 4.177-1.636 2.862-.993 6.426 1.52 8.412 1.549 1.227 3.097 1.753 5.902 1.957l2.338.146 4.442-4.644c2.454-2.541 4.558-4.527 4.675-4.411.117.117-1.666 2.133-3.974 4.44-2.338 2.337-4.032 4.235-3.769 4.235 1.636 0 5.814-1.811 7.714-3.359.935-.759 1.782-1.08 4.237-1.606 5.318-1.11 8.766-2.716 12.331-5.666 2.98-2.454 8.123-8.558 8.123-9.639 0-.175-.789.467-1.753 1.431-.964.964-1.753 1.606-1.753 1.46 0-.379 9.701-10.076 10.081-10.076.146 0-1.198 1.489-3.01 3.3l-3.302 3.301.497 1.46c.993 2.979 2.513 5.491 4.471 7.448 3.243 3.213 6.545 4.411 11.863 4.323 1.783-.029 4.062-.234 5.114-.438 3.565-.672 8.123-2.717 9.614-4.323.409-.409.876-.759 1.052-.759.204 0 1.724-1.315 3.418-2.892l3.039-2.892.672.993c1.023 1.49 3.799 3.944 5.465 4.849 2.25 1.198 4.529 1.694 8.035 1.694 3.799 0 6.692-.672 9.877-2.337 6.136-3.183 10.666-8.82 13.295-16.473l.906-2.6 3.361-.671c1.841-.38 4.09-.935 4.996-1.256l1.666-.555.117 6.017c.204 8.353 1.023 11.479 3.448 13.143.906.614 1.256.672 3.214.585 4.062-.234 5.523-1.578 7.013-6.368.468-1.519 1.315-4.352 1.899-6.28 1.432-4.673 3.039-8.616 5.202-12.851.993-1.928 1.87-3.622 1.928-3.768.059-.146-.993.555-2.308 1.577-3.156 2.424-2.864 1.636.438-1.168 1.432-1.198 3.507-3.096 4.588-4.177 1.636-1.636 2.133-1.986 2.805-1.898l.789.087-.117 4.966c-.117 5.549.088 6.484 1.812 8.265 2.688 2.775 7.802 1.987 11.834-1.81 1.929-1.782 4.208-5.17 4.88-7.215.643-1.898.497-4.498-.292-5.579-.906-1.197-2.513-1.986-4.091-1.986-1.344 0-1.373-.029-1.227-.818 1.315-7.331 1.315-8.821.117-10.602-1.199-1.753-2.046-2.162-4.384-2.132-3.944.029-7.714 2.073-12.36 6.688-2.338 2.308-3.886 4.206-5.552 6.747-2.191 3.33-5.26 9.113-6.37 12.093-.468 1.197-3.536 4.907-3.857 4.614-.059-.087.672-.934 1.636-1.898 1.344-1.344 1.753-1.957 1.753-2.629 0-1.665.965-6.426 2.66-13.202 2.191-8.675 2.22-9.697.175-10.077-1.461-.263-5.523.526-7.188 1.431-1.345.76-2.747 2.162-3.448 3.505-.614 1.14-1.345 3.564-2.572 8.442l-1.227 4.965-1.14.409c-2.133.73-8.941 2.395-9.204 2.249-.146-.117-.263-.555-.263-.993 0-1.519-1.14-5.316-2.25-7.419-1.257-2.395-4.003-5.462-5.844-6.543-4.5-2.628-11.659-2.57-17.533.205-5.055 2.366-9.438 6.542-12.331 11.771-.672 1.197-1.198 2.278-1.198 2.424 0 .146 2.338-2.103 5.231-4.965 2.863-2.863 5.376-5.17 5.61-5.083.204.059-2.192 2.775-5.757 6.485-3.36 3.505-6.224 6.63-6.34 6.98-.439 1.081-1.374 5.842-1.374 6.893 0 .994.088.935 4.266-3.417 2.338-2.453 4.383-4.44 4.53-4.44.847 0-.234 1.286-4.413 5.316l-4.675 4.498v3.272l-2.688 2.804c-3.945 4.177-6.429 5.841-9.906 6.572-1.315.292-1.841.613-3.244 2.015-.935.905-1.694 1.49-1.694 1.314 0-.175.584-.847 1.314-1.489.731-.643 1.315-1.227 1.315-1.285 0-.088-.701-.234-1.578-.322-4.149-.409-6.34-3.125-7.538-9.259-.234-1.226-.351-4.381-.322-8.937v-7.01l-2.834 2.92c-1.578 1.636-2.981 2.834-3.098 2.717-.204-.205 4.792-5.55 7.452-7.945l1.314-1.168-.847 1.11-.818 1.11.847-.205c.468-.087 1.374-.672 2.017-1.256 1.081-.964 1.11-.964.321-.117-.468.526-.818 1.023-.731 1.081.205.205 10.812-.964 12.974-1.431 5.552-1.198 8.387-3.885 8.416-7.974.029-2.424-.526-2.979-2.951-2.979h-1.607l-3.01 2.979c-1.666 1.636-3.039 2.775-3.039 2.57 0-.233 1.081-1.518 2.425-2.862l2.396-2.424-1.461.175c-.789.088-2.571.292-3.945.438-3.886.467-3.827.584-1.139-2.278 7.13-7.536 11.075-16.152 11.571-25.265.526-9.931-3.535-15.335-10.432-13.933Zm5.494 2.6c-.088.263-2.951 2.862-3.886 3.534-.322.205.321-.555 1.461-1.694 1.811-1.898 2.717-2.57 2.425-1.84Zm2.688 1.022c0 .059-.233.292-.496.497-.468.379-.497.35-.117-.117.38-.467.613-.613.613-.38Zm1.754 4.352c0 .029-.819.847-1.812 1.811l-1.841 1.753 1.753-1.84c1.607-1.695 1.9-1.957 1.9-1.724Zm-9.994 3.33c.789 1.84.643 6.864-.292 10.34-1.724 6.221-5.231 12.472-9.614 16.97l-2.308 2.424.175-1.168c.088-.643.672-3.739 1.315-6.864 2.776-13.903 6.429-22.783 9.38-22.783.701 0 .935.205 1.344 1.081Zm2.104 7.711c-.205.321-.409.526-.497.438-.234-.234.146-1.051.497-1.051.204 0 .204.175 0 .613Zm-20.893 17.466c-.088.146-.701.701-1.402 1.227l-1.228.964 1.169-1.227c1.023-1.11 1.929-1.665 1.461-.964Zm18.38 6.689c.204.321-2.075 2.57-2.338 2.308-.204-.176 1.607-2.483 1.987-2.512.117-.03.263.087.351.204Zm39.156 5.462c-2.192 2.337-4.15 4.235-4.325 4.235-.175 0 1.578-1.898 3.916-4.235 2.337-2.337 4.266-4.235 4.324-4.235.059 0-1.695 1.898-3.915 4.235Zm-13.559-.058c0 .058-.292.35-.643.671l-.672.555.556-.671c.526-.614.759-.789.759-.555Zm54.643 2.103c-.701.701-1.344 1.226-1.432 1.168-.175-.204 2.046-2.483 2.425-2.483.176 0-.292.584-.993 1.315Zm-45.526-.088c.088.526.029 1.168-.146 1.431-.205.322-.175 1.285.029 3.038.497 3.855 2.426 7.565 4.792 9.259l.906.642.409-.613c.234-.321 2.017-2.103 3.974-3.914l3.565-3.33-3.711 3.973c-2.074 2.19-3.74 4.235-3.74 4.498 0 .496.029.496.672-.029 1.578-1.402 1.695-1.315.38.233-.847 1.023-1.344 1.87-1.257 2.132.117.234.059.497-.087.585-.146.087-.672.993-1.169 2.015-2.396 5.053-7.218 7.565-10.812 5.666-1.578-.847-3.039-2.862-3.711-5.169-.467-1.578-.613-6.923-.263-9.289.906-6.309 5.26-11.858 9.409-12.033.497-.03.672.175.76.905Zm71.532-.204c-.204.233-.496.438-.642.438-.176 0-.147-.205.058-.438.205-.234.497-.439.643-.439.175 0 .146.205-.059.439Zm-206.707 2.745c-.087.117-2.308 2.249-4.909 4.703l-4.763 4.439 4.822-4.702c4.558-4.44 5.201-5.053 4.85-4.44Zm125.766.614c0 .146-.146.292-.321.292-.146 0-.205-.146-.117-.292.087-.176.234-.293.321-.293.059 0 .117.117.117.293Zm83.308.788c-1.928 2.366-3.214 3.71-3.243 3.388 0-.35 3.711-4.469 4.003-4.469.088 0-.263.497-.76 1.081Zm-28.957-.117c0 .059-.293.351-.643.672l-.672.555.555-.672c.526-.613.76-.788.76-.555Zm-31.413 1.081c-.292.321-.672.584-.818.584-.175 0-.058-.263.234-.584.292-.321.672-.584.818-.584.175 0 .059.263-.234.584Zm-62.094 1.285c0 .059-.233.292-.496.497-.468.379-.497.35-.117-.117.38-.467.613-.614.613-.38Zm113.084.263c0 .058-.292.351-.642.672l-.672.555.555-.672c.526-.613.759-.789.759-.555Zm1.754.438c0 .292-2.192 2.103-2.513 2.103-.146 0 .292-.526.906-1.168 1.11-1.139 1.607-1.431 1.607-.935Zm-48.799 2.833c-1.023 1.023-1.928 1.811-2.016 1.724-.175-.176 3.214-3.622 3.594-3.622.175 0-.526.847-1.578 1.898Zm44.123-.934c0 .058-.672.671-1.49 1.372-.847.701-1.461 1.14-1.402.964.058-.204.701-.788 1.431-1.372 1.344-1.052 1.461-1.11 1.461-.964Zm-197.385.496c-.088.146-.322.292-.468.292-.175 0-.205-.146-.117-.292a.598.598 0 0 1 .468-.292c.175 0 .204.117.117.292Zm122.376.906c-.292.496-.731 1.051-.964 1.226-.351.293-.38.263-.117-.087.146-.234.526-.789.789-1.256.701-1.081.935-.993.292.117Zm56.863.379c-2.746 1.987-4.032 3.067-4.558 3.651-.351.409-.643.614-.643.468-.029-.76 4.968-5.141 5.172-4.528.059.176.059.351.029.409Zm-179.415 2.133c-.117.613-1.11 5.111-2.162 10.018-2.25 10.398-2.951 12.706-4.617 15.217-2.279 3.418-5.289 4.645-7.685 3.184-1.549-.964-1.987-2.541-1.782-6.513.496-10.223 6.516-19.862 14.084-22.461 2.25-.789 2.454-.731 2.162.555Zm118.958 1.577c-1.374 1.285-3.127 2.862-3.945 3.534-1.11.905-.877.613.877-1.198 2.279-2.365 4.967-4.702 5.347-4.702.117.029-.906 1.081-2.279 2.366Zm37.694-.468c-.379.409-.818.731-.993.731-.146 0 .088-.38.555-.877.468-.467.906-.817.964-.73.088.088-.146.468-.526.876Zm12.273-.934c0 .058-.351.409-.789.818-.701.642-.701.379 0-.555.234-.322.789-.497.789-.263Zm-162.087 3.154c-1.227 1.548-1.403 1.724-1.49 1.139-.088-.467.292-1.08 1.315-2.103.759-.788 1.431-1.285 1.49-1.139.058.146-.526 1.081-1.315 2.103Zm41.406 1.87c-1.345 1.343-2.513 2.395-2.601 2.307-.175-.175 4.383-4.79 4.792-4.79.146 0-.818 1.11-2.191 2.483Zm-12.127 1.694c-2.016 2.132-4.062 4.03-4.529 4.206-.935.35-1.081.175-.497-.584.321-.439 8.416-7.449 8.62-7.507.059 0-1.549 1.753-3.594 3.885Zm-55.958-2.045c0 .059-.438.467-.935.964l-.964.847.847-.964c.819-.876 1.052-1.081 1.052-.847Zm99.935.175c0 .176-.117.38-.292.468-.146.087-.292-.029-.292-.263 0-.263.146-.467.292-.467.175 0 .292.116.292.262Zm71.737.906c-.292.321-.584.526-.672.438-.088-.088.088-.409.38-.73.292-.322.584-.526.672-.438.088.087-.088.409-.38.73Zm18 1.519c-1.023.934-1.987 1.606-2.162 1.489-.176-.117.438-.905 1.519-1.898 1.023-.935 1.987-1.607 2.162-1.49.176.117-.438.906-1.519 1.899Zm-185.873-1.724c0 .059-.292.351-.643.672l-.672.555.555-.672c.526-.613.76-.788.76-.555Zm3.36 1.607c-.233.263-1.314-.876-1.11-1.198.117-.175.41-.029.73.38.293.351.468.73.38.818Zm191.25-.73c0 .058-.292.35-.643.671l-.672.555.555-.671c.526-.614.76-.789.76-.555ZM90.714 207.97c.263.321.117.554-.701 1.168-1.403 1.081-1.9.672-.701-.584 1.11-1.169.993-1.11 1.402-.584Zm104.493 1.927c-.292.322-.672.584-.818.584-.175 0 0-.321.38-.73.789-.847 1.227-.73.438.146Zm3.361.205c0 .379-6.166 6.017-6.341 5.812-.234-.234 5.464-6.017 5.961-6.017.204 0 .38.088.38.205Zm76.587 1.343c-.292.263-.321.234-.146-.175.088-.292.263-.438.351-.35.087.087 0 .321-.205.525Zm-48.243.029c0 .059-.234.293-.497.497-.467.38-.497.351-.117-.117.38-.467.614-.613.614-.38Zm-44.416 1.315c0 .292-10.607 10.544-10.753 10.398-.234-.204.526-1.11 4.909-5.812 3.302-3.535 4.705-4.849 5.172-4.849.38 0 .672.117.672.263Zm-21.623 2.658a.293.293 0 0 1-.292.292.314.314 0 0 1-.292-.292c0-.175.146-.292.292-.292.175 0 .292.117.292.292Zm117.029.584c-.292.321-.584.526-.672.438-.205-.175.526-1.022.906-1.022.146 0 .058.263-.234.584Zm-147.418 3.213c-1.549 1.782-2.046 2.249-2.046 1.869 0-.292 3.039-3.592 3.302-3.592.146-.03-.409.759-1.256 1.723Zm27.759.087c0 .176-.263.059-.584-.233-.322-.292-.585-.672-.585-.818 0-.175.263-.058.585.234.321.292.584.671.584.817Zm14.026 1.227c-.701.73-1.344 1.227-1.432 1.169-.087-.088.439-.731 1.14-1.461.701-.73 1.344-1.227 1.432-1.168.087.087-.439.73-1.14 1.46Zm-12.126-.467c-.088.175-.322.321-.497.321-.176 0-.176-.175.058-.438.409-.496.76-.38.439.117Zm-22.413 2.22c-.35.818-.555.876-1.022.409-.263-.263-.614-.146-1.432.35l-1.111.672.819-1.081c.701-.905.993-1.08 1.957-1.08 1.111 0 1.111.029.789.73Zm-10.899.73c-.088.146-.468.438-.818.613-.643.351-.643.351-.088-.292.555-.613 1.257-.876.906-.321Zm-10.987.905c-.468.292-.672.117-.409-.292.088-.175.321-.233.497-.146.175.117.146.263-.088.438Zm2.075-.058c0 .146-.205.321-.439.438-.438.146-.584-.146-.233-.496.263-.293.672-.263.672.058Zm7.889 3.096c-.555.555-1.11 1.022-1.286 1.022-.175 0 .205-.525.848-1.168.614-.643 1.198-1.081 1.286-1.022.058.087-.322.613-.848 1.168Zm6.867 1.022a.554.554 0 0 1-.467.292c-.293 0-.351-.963-.059-1.285.263-.263.76.643.526.993Zm31.442.526c-.673.964-1.491 1.694-1.491 1.344 0-.234 1.754-2.162 1.987-2.162.059 0-.175.38-.496.818Zm-16.043.701c-.204.205-.35.234-.35.058 0-.408.35-.759.555-.554.058.087-.029.321-.205.496Zm-72.234-90.72c-.408.058-1.723.262-2.921.438-2.016.292-7.043 1.372-7.247 1.577-.058.058.058.409.234.788l.35.672-.642-.613-.643-.643-1.724.584c-1.403.468-2.017.906-3.098 2.162-.76.876-1.432 1.49-1.52 1.431-.058-.088.44-.759 1.17-1.49 1.431-1.489 1.373-1.46-2.163.117-9.438 4.294-18.35 12.18-24.574 21.731-3.273 5.024-8.036 15.101-7.247 15.364.409.117-.03 1.139-.701 1.665-.556.409-2.338 6.834-3.185 11.362-1.257 6.864-2.367 19.452-1.695 19.452.146 0 .584-.35.993-.759.38-.409.935-.876 1.227-1.052.468-.233.497-.204.264.263-.176.292-.819 1.139-1.49 1.899-.76.847-1.199 1.635-1.199 2.132 0 .701.526.292 4.91-3.826 2.688-2.571 5.288-4.966 5.756-5.375.789-.642.76-.584-.175.438-.556.643-3.156 3.418-5.757 6.163L20 218.017l.321 3.301c.468 4.907 1.754 10.339 3.244 13.494l.38.818 1.227-1.227c.672-.672 1.403-1.139 1.607-1.081.205.059-.263.672-1.14 1.402l-1.49 1.285.906 1.636c.965 1.723 3.244 4.79 3.799 5.141.204.117.672-.205 1.169-.76.438-.555.818-.876.818-.73 0 .146-.35.643-.79 1.081l-.788.818 1.023.876c.526.496 2.191 1.46 3.623 2.191 3.36 1.694 6.487 2.336 10.227 2.103 4.822-.322 7.744-1.578 10.812-4.703 3.39-3.417 4.792-6.747 6.253-14.925.497-2.746.994-5.287 1.081-5.696.117-.526-.905.292-3.74 3.125-2.133 2.133-4.12 3.885-4.412 3.885-.292 0-.497-.117-.439-.263.059-.117 2.075-2.103 4.471-4.381 2.426-2.308 4.413-4.323 4.471-4.498.03-.205.38-2.103.76-4.265l.672-3.884-4.179 4.177c-2.308 2.307-4.208 4.059-4.208 3.913 0-.175 1.958-2.453 4.354-5.082l4.383-4.761.322-2.074c.204-1.168.497-2.803.672-3.651l.35-1.577 4.384-1.11c7.626-1.957 13.324-4.41 19.022-8.236 3.77-2.512 8.942-7.39 11.28-10.661 2.045-2.834 4.295-7.01 4.47-8.266.059-.497.322-1.227.556-1.607 1.49-2.278 2.513-9.872 1.957-14.516-1.081-8.763-5.172-14.634-12.74-18.226-4.266-2.016-6.72-2.512-12.857-2.6-2.893-.058-5.581-.058-5.99.03Zm4.238 2.453c-.935.964-1.783 1.665-1.87 1.577-.088-.058.642-.905 1.578-1.869.935-.964 1.782-1.665 1.87-1.577.087.058-.643.905-1.578 1.869Zm10.957-.935c0 .117-2.483 2.629-5.551 5.55-3.04 2.95-5.552 5.257-5.552 5.111 0-.292 10.578-10.894 10.87-10.894.146 0 .233.087.233.233Zm-21.477 4.119c-.204.993-.555 1.168-.847.438-.117-.292.03-.73.292-1.052.643-.671.818-.496.555.614Zm21.916.029c-.088.146-.35.292-.526.292-.205 0-.175-.117.088-.292.555-.351.672-.351.438 0Zm-3.945 1.898c-.701.731-1.432 1.315-1.578 1.315-.175 0 .35-.643 1.14-1.461.789-.788 1.49-1.372 1.578-1.314.087.088-.439.759-1.14 1.46Zm-11.98-.584c-.205.263-.439.38-.526.292-.088-.058.029-.321.233-.584.205-.263.439-.38.526-.292.088.059-.029.321-.233.584Zm12.827 1.84c-.555.614-1.052.993-1.11.847-.117-.292 1.403-1.957 1.812-1.957.146 0-.176.497-.702 1.11Zm-32.931.993c-.205.205-.35.234-.35.059 0-.409.35-.76.554-.555.059.088-.029.321-.204.496Zm37.344-.204c-.205.263-.439.38-.497.321-.204-.204.205-.759.555-.759.175 0 .175.175-.058.438Zm8.474.789c-.351.292-.731.467-.818.379-.263-.233.876-1.314 1.198-1.11.175.117.029.409-.38.731Zm-47.893.321c-.38.38-.76.088-.467-.351.087-.175.32-.233.496-.146.176.117.176.292-.029.497Zm4.938.526c-.204.321-.409.525-.496.438-.234-.234.146-1.052.496-1.052.205 0 .205.176 0 .614Zm-10.782 2.599c-1.52 1.431-2.835 2.541-2.922 2.454-.234-.234 4.734-5.083 5.23-5.083.234.03-.818 1.198-2.308 2.629Zm42.925-1.84c0 .117-.876 1.11-1.958 2.191l-1.928 1.957.964 1.08c1.198 1.402 2.513 4.148 2.951 6.222.439 2.103.176 8.324-.467 10.836-.263 1.051-1.11 3.213-1.9 4.819-2.337 4.849-6.224 8.558-11.834 11.245-2.688 1.286-7.247 2.921-8.153 2.921-.292 0 .117-3.008 1.637-12.034 2.191-13.026 2.28-14.165.993-16.064-.876-1.314-2.367-1.782-5.142-1.606-5.202.35-8.62 3.008-9.614 7.477l-.263 1.285 1.286-1.285c.7-.672 1.373-1.139 1.49-1.022.117.116-.497.817-1.344 1.577l-1.549 1.373-1.549 8.762c-.847 4.819-1.724 9.814-1.928 11.099l-.41 2.337-3.506.146c-3.01.146-3.682.263-4.821.876-1.87 1.052-2.776 2.775-2.776 5.258.029 2.219.497 3.388 1.84 4.264 1.17.789 4.442 1.227 5.67.759.467-.175.818-.175.818-.029s.204.263.438.263c.322 0 .41.205.292.643-.087.379-.993 5.608-2.045 11.624-1.987 11.421-2.6 13.904-3.857 15.773-.819 1.256-1.374 1.548-2.835 1.431-.555-.058-1.198.088-1.46.292-.293.234-.468.263-.468.088 0-.175.117-.38.263-.497.175-.087-.293-.759-1.023-1.46-1.198-1.198-3.623-5.52-3.623-6.455 0-.906-.73-.672-1.783.496-.614.701-1.11 1.169-1.14.993 0-.146.556-.817 1.199-1.489l1.227-1.256-.35-1.344c-.614-2.395-1.199-7.214-1.199-9.843 0-2.103-.087-2.599-.497-2.833-.467-.263-.467-.321-.029-.818.35-.38.497-1.139.555-2.745.03-1.227-.029-2.366-.146-2.571-.117-.175-.058-.321.117-.321.205 0 .322-.467.263-1.256-.03-.672.03-1.431.117-1.665.058-.234.35-2.015.614-3.943 1.753-12.53 6.107-23.717 12.36-31.837 2.104-2.716 11.25-11.654 11.6-11.333.088.088-.029.409-.292.701-.233.263.702-.087 2.133-.788 4.851-2.454 10.023-3.622 15.838-3.622 4.062 0 6.516.526 9.058 1.928l1.87 1.022 1.93-1.899c1.81-1.811 2.366-2.219 2.366-1.723Zm-29.337.906c-.526.467-.526.467-.176-.176.175-.379.41-.613.526-.525.088.116-.058.408-.35.701Zm-9.526 4.059c0 .38-1.958 1.841-2.163 1.636-.233-.263 1.286-1.84 1.783-1.84.204 0 .38.088.38.204Zm-9.643 2.571c-.702.73-1.432 1.314-1.578 1.314-.175 0 .292-.584.993-1.314.702-.73 1.432-1.315 1.578-1.315.176 0-.292.585-.993 1.315Zm5.347 1.431c-.117.204-.906 1.139-1.724 2.045-1.256 1.402-1.549 1.577-1.695 1.139-.175-.38.205-.906 1.49-2.045 1.666-1.489 2.397-1.928 1.93-1.139Zm55.432 2.804c0 .146-.292.438-.643.613-.672.351-.672.351-.117-.292.614-.672.76-.759.76-.321Zm1.169 2.191c0 .204-2.017 2.219-4.442 4.468-2.454 2.249-4.617 4.352-4.821 4.645-.176.292-.351.438-.351.321-.058-.701 8.912-10.252 9.38-9.989.117.087.234.321.234.555Zm-62.533.73a.293.293 0 0 1-.292.292.314.314 0 0 1-.292-.292c0-.175.146-.292.292-.292.175 0 .292.117.292.292Zm27.468 1.314c-.205.263-.439.38-.526.292-.088-.058.029-.321.234-.584.204-.263.438-.38.526-.292.087.058-.03.321-.234.584Zm-6.107 4.44c-.322.613-1.461 1.957-2.572 3.008-4.587 4.382-5.698 5.375-5.61 5.082.175-.496 8.503-9.492 8.65-9.346.058.058-.147.613-.468 1.256Zm1.432.38c0 .146-.147.292-.322.292-.146 0-.205-.146-.117-.292.088-.176.234-.293.322-.293.058 0 .117.117.117.293Zm.73 2.044c-.468.467-.906.818-.993.73-.059-.087.233-.555.7-1.022.468-.467.907-.818.994-.73.059.087-.234.555-.701 1.022Zm37.11 1.753c-.292.321-.672.584-.818.584-.175 0-.058-.263.234-.584.292-.322.672-.585.818-.585.175 0 .058.263-.234.585Zm-72.613.701c0 .087-.117.233-.292.321-.146.088-.293.029-.293-.117 0-.175.146-.321.293-.321.175 0 .292.058.292.117Zm30.828 2.307c-.497.759-1.52 1.402-1.14.701.35-.613 1.373-1.665 1.52-1.548.058.058-.117.467-.38.847Zm-2.163 0c-.292.263-.321.234-.146-.175.088-.292.263-.438.35-.351.089.088 0 .322-.204.526Zm41.172-.234c0 .234-.292.555-.613.76-.643.321-.614.087.117-.847.35-.468.496-.438.496.087Zm-1.46 2.688c0 .408-2.368 2.19-2.572 1.986-.117-.117.321-.643.935-1.198 1.11-.964 1.636-1.227 1.636-.788Zm-62.825 1.372c0 .059-1.637 1.636-3.624 3.505-2.98 2.804-3.681 3.301-3.944 2.98-.293-.351.292-.994 3.243-3.505 3.068-2.629 4.325-3.505 4.325-2.98Zm50.727 4.937c-.906 1.197-.935 1.372-.146 1.372.321 0 .497.146.409.292-.117.205-.35.205-.701 0-.439-.233-1.257.38-4.822 3.681-2.367 2.19-4.354 3.914-4.441 3.826-.088-.088 2.162-2.483 4.967-5.345 2.835-2.833 5.23-5.082 5.318-4.995.088.088-.175.614-.584 1.169Zm8.883-.672c0 .146-.058.292-.117.292-.087 0-.234-.146-.321-.292-.088-.176-.03-.292.117-.292.175 0 .321.116.321.292Zm-70.363.642c-.205.205-.351.234-.351.059 0-.409.35-.76.555-.555.059.087-.03.321-.204.496Zm66.272 1.023c0 .292-2.338 2.219-2.484 2.073-.233-.233 1.637-2.278 2.075-2.278.234 0 .41.088.41.205Zm-35.357 5.578c0 .146-1.52 1.665-3.36 3.388-1.841 1.724-3.36 3.038-3.36 2.921 0-.321 6.194-6.542 6.486-6.542a.23.23 0 0 1 .234.233Zm24.545 5.17c-.204.263-.438.38-.525.292-.088-.058.029-.321.233-.584.205-.263.439-.38.526-.292.088.058-.029.321-.234.584Zm-53.473.468c-.205.321-.41.525-.497.438-.088-.088 0-.351.204-.614.526-.613.672-.555.293.176Zm2.63 1.139c0 .146-.059.292-.117.292-.088 0-.234-.146-.322-.292-.087-.176-.03-.292.117-.292.175 0 .321.116.321.292Zm-2.484 2.044c-.293.322-.672.584-.819.584-.175 0 0-.321.38-.73.79-.847 1.228-.73.439.146Zm32.26 7.507c-2.835 2.862-5.494 5.695-5.933 6.279-.672.906-1.986 1.695-2.834 1.695-.117 0-.087-.409.088-.877.263-.818 3.535-3.972 10.753-10.339 4.12-3.622 3.039-1.928-2.075 3.242Zm-30.01-2.921c-1.578 1.898-4.15 4.352-4.15 4.031 0-.263 4.968-5.404 5.202-5.404.058 0-.41.614-1.052 1.373Zm26.561 12.092-.964.906-.701-.672c-.877-.818-.497-1.139 1.344-1.139l1.315.029-.994.876Zm-5.464 5.579c-1.081 1.168-2.104 2.19-2.28 2.249-.174.058.673-.906 1.87-2.132 1.199-1.227 2.222-2.22 2.28-2.22.088 0-.76.964-1.87 2.103Zm-15.545 8.616c-1.17 1.49-2.075 2.279-2.309 2.016-.117-.088.497-.906 1.373-1.782 1.754-1.782 2.28-1.928.936-.234Zm16.013-.642c0 .058-.293.292-.643.467-.614.321-.643.321-.263-.117.38-.467.906-.672.906-.35Zm6.428 1.723c0 .058-2.454 2.453-5.464 5.316l-5.494 5.199 5.26-5.316c4.617-4.673 5.698-5.666 5.698-5.199Zm-8.97.613c-.088.263-.234.409-.293.322-.087-.088-.058-.263.059-.438.263-.468.438-.38.233.116Zm3.71 2.045c-.7.73-1.344 1.314-1.431 1.314-.088 0 .438-.584 1.14-1.314.7-.73 1.343-1.314 1.431-1.314.088 0-.438.584-1.14 1.314Zm-19.227 5.783c-.672.672-1.315 1.11-1.432.993-.116-.117.38-.818 1.11-1.548.702-.701 1.345-1.139 1.403-.964.059.176-.438.877-1.08 1.519Zm6.516-.38c.088.147.03.293-.117.293-.175 0-.32-.146-.32-.293 0-.175.058-.292.116-.292.088 0 .234.117.321.292Zm6.137 5.55c-.088.146-.35.292-.526.292-.205 0-.176-.117.087-.292.556-.35.673-.35.439 0Z"/>
    <path d="M305.895 138.6c-.35.175-1.198 1.022-1.87 1.928-1.052 1.373-1.286 1.577-1.519 1.168-.205-.379.029-.788.993-1.811l1.286-1.314-.877.175c-.467.088-2.659.438-4.821.76-3.156.467-4.062.73-4.676 1.256-1.314 1.197-1.928 1.518-1.051.555.701-.76.759-.935.35-.935-.263 0-4.938.672-10.344 1.46l-9.847 1.49-3.419 3.563c-1.899 1.957-3.448 3.447-3.448 3.272 0-.146 1.402-1.694 3.126-3.418 2.25-2.249 2.981-3.154 2.572-3.154-.322.029-3.39.467-6.809.993l-6.224.964-1.811 1.781c-1.023.994-1.958 1.811-2.104 1.811-.146 0 .497-.788 1.461-1.781 1.665-1.694 1.724-1.782.876-1.607-.467.088-2.659.438-4.821.789-6.633 1.051-9.993 2.336-12.068 4.615-1.695 1.869-1.87 4.936-.38 6.864.994 1.314 3.507 2.512 5.64 2.716 1.607.146 1.753.088 2.542-.759.497-.497.993-.906 1.169-.906.146 0-.088.38-.556.876l-.847.877h1.461c.789 0 4.763-.468 8.854-1.081l7.393-1.11 2.396-2.161 2.367-2.191-2.046 2.132c-1.899 1.986-1.987 2.132-1.168 1.957.496-.087 9.233-1.431 19.431-2.95 22.003-3.33 23.757-3.709 26.737-5.812 2.309-1.665 3.127-3.126 3.098-5.637-.03-2.542-1.111-3.944-3.887-4.937-1.49-.525-6.253-.818-7.159-.438Zm3.536 1.139c.058.117-.585.847-1.461 1.607-.877.788-1.578 1.314-1.578 1.227 0-.322 2.367-3.067 2.63-3.067.146 0 .321.116.409.233Zm2.221.468c0 .087-.439.409-.935.759l-.965.643.877-.76c.906-.788 1.023-.847 1.023-.642Zm-12.127.759c-.292.321-.584.526-.672.438-.205-.175.526-1.022.906-1.022.146 0 .058.263-.234.584Zm-10.373 1.753c0 .146-.146.292-.322.292-.146 0-.204-.146-.117-.292.088-.176.234-.293.322-.293.058 0 .117.117.117.293Zm-.059 3.125c-1.753 1.84-1.841 1.928-2.308 1.782-.263-.088 3.419-3.447 3.799-3.447.058 0-.614.759-1.491 1.665Zm-22.441-.059c-.205.263-.439.38-.497.322-.204-.205.205-.76.555-.76.176 0 .176.176-.058.438Zm47.63 2.045c-1.023 1.051-2.017 1.899-2.192 1.899-.263-.03 3.623-3.768 3.945-3.798.058 0-.731.847-1.753 1.899Zm-52.481 1.051c-.613.643-3.097 3.038-5.523 5.316l-4.383 4.119 5.406-5.462c2.951-2.979 5.435-5.375 5.523-5.287.088.059-.38.672-1.023 1.314Zm47.951.263c-.789.789-1.49 1.373-1.578 1.315-.087-.088.497-.818 1.286-1.607.789-.788 1.49-1.373 1.578-1.314.088.088-.497.818-1.286 1.606Zm-7.977.438c-.438.731-.906 1.315-1.052 1.315-.117 0-.058-.292.175-.672.234-.35.585-.935.789-1.314.176-.351.468-.643.614-.643.146 0-.088.584-.526 1.314Zm-7.013-.087c-.204.204-.351.234-.351.058 0-.409.351-.759.556-.555.058.088-.03.322-.205.497Zm-13.646 1.11c-.789.788-1.49 1.373-1.578 1.285-.175-.175 2.425-2.746 2.805-2.746.117 0-.438.643-1.227 1.461Zm12.273-.584c.087.146-.029.292-.263.292-.263 0-.468-.146-.468-.292 0-.176.117-.292.263-.292.176 0 .38.116.468.292Zm-11.396 4.673c-.468.496-.965.876-1.14.876-.146 0 .146-.467.701-1.022.526-.555 1.052-.935 1.14-.876.058.087-.234.555-.701 1.022Zm-134.123 5.403c-22.442 3.476-24.75 3.885-27.176 4.966-2.775 1.226-4.237 3.475-3.769 5.871.234 1.343 1.782 2.891 3.302 3.358l1.14.351 2.513-2.249c1.373-1.227 2.6-2.22 2.688-2.22.117 0-.438.73-1.198 1.607-.76.876-1.403 1.927-1.461 2.336-.059.672.029.73 1.285.73.731 0 4.033-.409 7.335-.905l5.99-.905 1.666-1.636c.935-.906 1.782-1.519 1.899-1.402.146.117-.409.818-1.227 1.519-.789.701-1.344 1.285-1.169 1.285.146 0 2.191-.292 4.529-.614l4.237-.613 2.338-2.249 2.337-2.22-2.045 2.103c-1.11 1.169-1.87 2.132-1.695 2.132.176 0 2.484-.321 5.085-.73l4.763-.759 1.577-1.723c.848-.964 1.783-1.753 2.046-1.753.321.029-.205.672-1.403 1.782-1.724 1.577-1.811 1.723-1.022 1.548.496-.117 1.344-.643 1.899-1.169 1.286-1.226 1.87-1.314.73-.116-1.051 1.08-1.139 1.08 4.617.146 8.708-1.402 12.01-3.389 12.01-7.273 0-1.84-.643-2.892-2.279-3.768-.994-.526-1.753-.643-4.559-.672-3.009-.058-5.61.263-24.983 3.242Zm24.399-1.08c0 .116-.847 1.08-1.899 2.103-1.052 1.022-1.9 1.781-1.9 1.635 0-.321 3.273-3.972 3.565-3.972.117 0 .234.117.234.234Zm-25.743 6.717c-.877.906-1.608 1.724-1.637 1.782-.058.059-.175.029-.292-.087-.117-.088.584-.964 1.519-1.928 2.192-2.191 2.543-2.016.41.233Zm-3.624-.525c.088.146-.029.292-.292.292-.263 0-.38-.146-.292-.292.087-.176.234-.292.292-.292.058 0 .205.116.292.292Zm217.694-3.68c-4.207 1.051-5.172 2.219-9.175 11.157-5.143 11.479-6.721 14.195-13.675 23.454-4.003 5.316-4.734 6.601-4.763 8.354 0 1.402.993 3.213 1.636 2.95a.454.454 0 0 1 .585.263c.233.613 1.753.555 3.185-.117.643-.292 2.104-1.519 3.243-2.716 2.075-2.191 6.546-7.595 6.546-7.916 0-.117-.205-.087-.497 0-.322.117-.409.088-.263-.175.146-.205.409-.292.643-.205.438.176 2.63-3.008 4.938-7.214.789-1.402 1.52-2.541 1.636-2.541.351 0 3.741 4.294 4.822 6.134l1.081 1.811 5.055-5.053 5.055-5.053-.759-1.052c-.439-.555-.819-1.081-.877-1.139-.058-.088-.497.234-.964.701-.468.467-.935.759-1.023.701-.088-.088.234-.526.701-.964l.848-.818-1.9-2.541c-1.052-1.373-1.957-2.57-2.016-2.629-.058-.058-.351.059-.613.292-.497.38-.497.38-.088-.116.38-.497.467-2.162.146-2.512-.088-.059-.555.233-1.023.701-1.285 1.226-1.169.175.117-1.256.555-.584 1.14-1.665 1.344-2.395.205-.731.935-2.6 1.666-4.177 1.49-3.242 1.782-5.287.876-5.871-.467-.263-.759-.058-2.133 1.49-1.431 1.606-2.454 2.278-2.454 1.635 0-.116.76-.964 1.665-1.898l1.666-1.694-1.87.029c-1.052 0-2.542.175-3.361.38Zm-.876 6.279c-.088.176-.322.322-.497.322s-.175-.176.059-.438c.409-.497.759-.38.438.116Zm5.523.468c-.117.233-.322.438-.468.438-.175 0-.146-.175.058-.438.205-.234.41-.438.468-.438.058 0 .029.204-.058.438Zm-8.445 2.19c.087.146.029.292-.117.292-.175 0-.322-.146-.322-.292 0-.175.059-.292.117-.292.088 0 .234.117.322.292Zm1.461 6.134c-.292.321-.672.584-.848.584-.175-.029 0-.292.38-.584.877-.759 1.14-.759.468 0Zm-4.851 5.287c-2.162 2.278-4.529 4.79-5.289 5.637-.76.818-1.373 1.314-1.402 1.11 0-.205 1.402-1.84 3.097-3.651 1.695-1.782 3.36-3.651 3.711-4.148l.643-.876-.964.672c-1.491 1.081-1.111.555.759-.993.906-.76 1.491-1.198 1.315-.993-.789.876-.321.876.702.029.613-.497 1.139-.906 1.198-.906.087 0-1.637 1.87-3.77 4.119Zm-4.354 10.894c0 .088-.117.234-.292.322-.146.087-.292.029-.292-.117 0-.175.146-.321.292-.321.175 0 .292.058.292.116Zm-4.091.906c-.204.234-.496.438-.672.438-.146 0-.058-.263.234-.584.614-.672 1.023-.555.438.146Zm-.584 5.695c0 .322-.964.877-1.519.877-.205-.029-.088-.263.321-.584.73-.643 1.198-.76 1.198-.293Zm-5.552 5.521c0 .175-.117.38-.292.467-.146.088-.292-.029-.292-.263 0-.263.146-.467.292-.467.175 0 .292.117.292.263Z"/>
    <path d="m365.915 190.708-5.202 5.023.322 1.023c.146.555.292 1.372.292 1.811v.817h-2.25c-2.192 0-2.279.03-3.36 1.081-1.315 1.285-1.9 1.081-.643-.234l.847-.905-1.023.204c-3.448.672-5.23 1.811-6.545 4.236-1.958 3.592-.497 7.594 3.477 9.375.906.409 1.257.439 1.578.176.351-.263.38-.263.234 0-.526.876 4.909.818 7.977-.088 3.068-.905 4.997-2.103 7.597-4.761 2.893-2.921 4.325-5.462 5.289-9.376.731-2.891.643-6.338-.204-8.47-.585-1.49-2.688-4.965-2.981-4.965-.116.029-2.542 2.278-5.405 5.053Zm.379 1.343c0 .351-.584.73-.789.526-.204-.205.176-.789.526-.789.147 0 .263.117.263.263Zm-4.12 4.294c-.175.204-.438.321-.613.233-.146-.087-.117-.35.087-.584.176-.204.439-.321.614-.233.146.087.117.35-.088.584Zm7.861 1.694c-.117.555-10.169 9.901-10.403 9.668-.204-.175 9.847-10.048 10.257-10.048.146-.029.204.175.146.38Zm1.227 1.343c0 .146-.058.293-.117.293-.088 0-.234-.147-.321-.293-.088-.175-.03-.292.117-.292.175 0 .321.117.321.292Zm-1.549 2.337c-.701.993-10.198 10.573-10.344 10.427-.058-.087 1.958-2.336 4.5-5.023 2.542-2.688 4.792-5.112 5.026-5.433.205-.292.584-.555.818-.555.351 0 .351.088 0 .584Zm3.594-.204c0 .204-.438.759-.935 1.256-2.425 2.19-2.63 2.249-1.11.321 1.549-1.928 2.045-2.308 2.045-1.577Zm-14.727 2.453c-1.023.847-1.636.555-.76-.35.38-.409.819-.614 1.111-.526.35.146.292.321-.351.876Zm6.399 5.783c-1.11 1.052-2.162 1.87-2.337 1.899-.146 0 .292-.497 1.023-1.11a68.539 68.539 0 0 0 2.191-1.869c.468-.438.935-.789 1.023-.789.088 0-.76.847-1.9 1.869Zm-7.451.263c0 .059-.35.322-.789.584l-.818.497.701-.584c.672-.614.906-.73.906-.497Zm-206.093 46.733c-1.754.643-2.659 1.548-3.331 3.242-.234.584-.351 3.68-.351 9.61-.029 8.353 0 8.821.584 10.047.848 1.724 2.396 2.687 4.559 2.892 3.156.292 5.376-.818 6.399-3.184.438-1.051.526-2.366.643-8.441.058-4.235 0-8.003-.205-9.171-.35-2.366-1.315-3.943-2.805-4.644-1.461-.701-4.091-.877-5.493-.351Zm3.506 3.622c.789.496.964 2.044.964 9.113 0 8.762-.146 9.317-2.25 9.346-2.016 0-2.22-1.051-2.074-10.719.087-6.134.146-6.805.643-7.36.555-.614 2.016-.818 2.717-.38Zm57.857-3.622c-2.308.847-3.419 2.746-3.448 5.842-.029 3.3 1.052 5.403 4.149 8.12 2.543 2.22 3.478 3.768 3.478 5.637 0 1.752-.555 2.483-1.929 2.483-1.432 0-1.958-.585-2.104-2.454l-.117-1.636H209l.175 2.016c.175 2.249.613 3.3 1.87 4.44 1.14 1.08 2.776 1.548 4.792 1.343 3.331-.292 4.938-2.044 5.172-5.608.205-3.476-.321-4.586-4.061-8.499-2.426-2.512-3.215-3.564-3.478-4.499-.613-2.249.176-3.797 1.9-3.797 1.227 0 1.899.847 1.899 2.395v1.11h3.886l-.175-1.694c-.234-2.891-1.607-4.702-3.886-5.286-1.637-.409-2.922-.38-4.296.087Zm41.493 0c-1.753.643-2.659 1.548-3.331 3.242-.234.584-.35 3.68-.35 9.61-.03 8.353 0 8.821.584 10.047.847 1.724 2.396 2.687 4.558 2.892 3.156.292 5.377-.818 6.4-3.184.438-1.051.526-2.366.643-8.266.175-10.31-.351-12.734-3.01-13.99-1.461-.701-4.091-.877-5.494-.351Zm3.507 3.622c.789.496.964 2.044.964 9.113 0 8.762-.146 9.317-2.25 9.346-2.045 0-2.221-.876-2.075-10.427.088-6.426.147-7.097.643-7.652.556-.614 2.017-.818 2.718-.38Zm-137.133-2.512c.088.701.702 6.192 1.344 12.209.673 6.017 1.257 11.245 1.345 11.596.117.643.263.672 2.863.672h2.718l.175-1.519c.088-.847.409-3.856.701-6.66.585-5.783.643-5.695 1.374 1.899.701 7.01.292 6.28 3.36 6.28h2.601l.175-1.11c.088-.584.701-5.959 1.344-11.888.643-5.958 1.228-11.245 1.315-11.771l.176-.934h-1.754c-2.104 0-1.724-1.344-2.951 10.807-.497 4.877-.935 8.908-.994 8.966-.058.088-1.957-18.956-1.928-19.569 0-.38-3.799-.234-3.945.146-.058.204-.467 4.177-.876 8.85-.41 4.644-.848 8.938-.965 9.493-.146.701-.526-1.84-1.227-8.763l-1.023-9.784-2.016-.088-1.987-.088.175 1.256Zm47.718-1.022c-.117.088-.205 5.871-.205 12.852v12.647h4.091v-10.515h1.023c1.344 0 2.337.496 2.747 1.373.175.379.321 2.278.321 4.264 0 5.024-.058 4.878 2.308 4.878h1.929l-.088-3.856c-.087-5.199-.409-6.688-1.665-7.769l-.965-.876.731-.672c1.432-1.344 1.695-2.22 1.695-5.667 0-2.687-.088-3.388-.585-4.205-.759-1.286-1.811-2.045-3.243-2.366-1.315-.322-7.802-.38-8.094-.088Zm7.276 4.002c.496.379.555.788.555 3.358 0 3.505-.263 3.914-2.396 3.944l-1.403.029-.087-3.885-.088-3.855h1.432c.759 0 1.665.175 1.987.409Zm13.266 8.645v12.852h4.091v-3.943c0-3.067.117-4.148.497-4.966.263-.555.555-1.022.643-1.022.087 0 1.022 2.249 2.045 4.965l1.87 4.966h1.987c1.111 0 2.016-.088 2.016-.234 0-.117-1.168-3.213-2.63-6.864-1.431-3.68-2.629-6.835-2.629-7.068 0-.205 1.168-2.775 2.629-5.725 1.432-2.95 2.63-5.491 2.63-5.608 0-.117-.876-.204-1.957-.146l-1.958.088-2.513 5.345-2.484 5.345-.088-5.433-.058-5.403h-4.091v12.851Zm40.325 0v12.852h4.09v-11.129l2.28.088 2.25.088.087 5.462.059 5.491h4.091v-25.703h-4.091v11.099h-4.676v-11.099h-4.09v12.851Zm41.99-12.647c-.117.088-.205 5.871-.205 12.852v12.647h4.091v-9.639h1.753c2.864 0 4.617-.964 5.581-3.067.439-.934.556-1.898.556-4.965 0-3.388-.088-3.973-.643-5.112-.789-1.518-1.753-2.278-3.331-2.628-1.315-.322-7.51-.38-7.802-.088Zm7.217 4.031c.234.233.526 1.051.643 1.781.263 1.753-.029 5.287-.497 5.842-.204.263-.906.409-1.899.409h-1.578v-8.47h1.432c.906 0 1.607.175 1.899.438Zm-191.279 4.702-2.25 3.943 2.25 3.944 2.25 3.913 4.646-.087 4.676-.059 2.133-3.651c1.169-2.015 2.104-3.855 2.104-4.089 0-.233-.965-2.074-2.133-4.089l-2.163-3.651-4.646-.058-4.617-.088-2.25 3.972Zm8.737.322c2.805 1.314 2.864 5.812.117 7.243-2.864 1.461-6.487-.964-6.02-4.06.439-2.921 3.244-4.439 5.903-3.183Zm212.815-4.031c-1.111.35-2.63 1.197-2.63 1.431 0 .117 2.425 2.629 5.435 5.608l5.406 5.403.555-.672c1.753-2.132 1.461-6.659-.555-9.142-1.754-2.132-5.815-3.417-8.211-2.628Zm-5.026 4.176c-.497.964-.672 1.753-.672 3.447 0 1.899.117 2.395.876 3.768.994 1.811 2.864 3.33 4.763 3.855 1.724.468 4.413.176 5.903-.642l1.198-.672-5.494-5.491c-3.009-3.009-5.581-5.491-5.698-5.491-.116 0-.526.555-.876 1.226Z"/>
  </g>
  <defs>
    <filter id="a" width="395" height="306.585" x="0" y="0" color-interpolation-filters="sRGB" filterUnits="userSpaceOnUse">
      <feFlood flood-opacity="0" result="BackgroundImageFix"/>
      <feColorMatrix in="SourceAlpha" result="hardAlpha" values="0 0 0 0 0 0 0 0 0 0 0 0 0 0 0 0 0 0 127 0"/>
      <feOffset dy="4"/>
      <feGaussianBlur stdDeviation="10"/>
      <feComposite in2="hardAlpha" operator="out"/>
      <feColorMatrix values="0 0 0 0 0 0 0 0 0 0 0 0 0 0 0 0 0 0 0.5 0"/>
      <feBlend in2="BackgroundImageFix" result="effect1_dropShadow_388_8"/>
      <feBlend in="SourceGraphic" in2="effect1_dropShadow_388_8" result="shape"/>
    </filter>
  </defs>
</svg>