<svg width="16" height="16" viewBox="0 0 16 16" fill="none" xmlns="http://www.w3.org/2000/svg">
<g clip-path="url(#clip0_17_6)">
<path d="M8 9.067L4.467 5.534C4.40287 5.46149 4.32297 5.40466 4.23343 5.36787C4.1439 5.33108 4.04712 5.31532 3.95054 5.32179C3.85396 5.32826 3.76015 5.35679 3.67632 5.4052C3.5925 5.4536 3.52089 5.52059 3.467 5.601C3.37021 5.73481 3.32384 5.89854 3.3361 6.06324C3.34836 6.22794 3.41846 6.38299 3.534 6.501L7.534 10.468C7.5933 10.5327 7.66539 10.5843 7.7457 10.6196C7.826 10.6549 7.91277 10.6731 8.0005 10.6731C8.08823 10.6731 8.175 10.6549 8.25531 10.6196C8.33561 10.5843 8.4077 10.5327 8.467 10.468L12.467 6.501C12.5825 6.38299 12.6526 6.22794 12.6649 6.06324C12.6772 5.89854 12.6308 5.73481 12.534 5.601C12.4801 5.52059 12.4085 5.4536 12.3247 5.4052C12.2409 5.35679 12.147 5.32826 12.0505 5.32179C11.9539 5.31532 11.8571 5.33108 11.7676 5.36787C11.678 5.40466 11.5981 5.46149 11.534 5.534L8 9.067Z" fill="#40a6ab"/>
</g>
<defs>
<clipPath id="clip0_17_6">
<rect width="16" height="16" fill="white"/>
</clipPath>
</defs>
</svg>
