<svg xmlns="http://www.w3.org/2000/svg" viewBox="0 0 22 22">
  <path id="Path_153" data-name="Path 153" d="M13,4a9,9,0,1,1-9,9,9,9,0,0,1,9-9m0-2a10.95,10.95,0,1,0,7.793,3.207A11,11,0,0,0,13,2Z" transform="translate(-2 -2)" fill="#fff"/>
  <path id="Path_154" data-name="Path 154" d="M20.9,19.48l2.8-2.75a1.05,1.05,0,0,0,.1-1.35.95.95,0,0,0-1.5-.1l-2.8,2.8-2.8-2.8a.95.95,0,0,0-1.5.1,1.05,1.05,0,0,0,.1,1.35l2.8,2.75-2.8,2.75a1.05,1.05,0,0,0-.1,1.35.95.95,0,0,0,1.5.1l2.8-2.8,2.8,2.8a.95.95,0,0,0,1.5-.1,1.05,1.05,0,0,0-.1-1.35Z" transform="translate(-8.501 -8.48)" fill="#fff"/>
</svg>
