<svg width="21" height="29" viewBox="0 0 21 29" fill="none" xmlns="http://www.w3.org/2000/svg">
<path d="M9.60291 0.243387C9.36953 0.375298 9.08429 0.652311 8.9676 0.836987C8.85091 1.02166 8.59159 1.2591 8.38415 1.36463C7.16538 2.011 7.10055 3.89732 8.28042 4.57007L8.65642 4.79432V6.93128V9.08143H6.80234H4.94827L4.65006 8.6725C4.06661 7.88104 3.09419 7.53807 2.39405 7.90742C1.99212 8.11848 1.3957 8.69889 1.3957 8.88356C1.3957 8.96271 1.18825 9.13419 0.941904 9.25291C0.254729 9.58269 -0.056445 10.1763 0.00838292 11.0469C0.0472796 11.6933 0.112108 11.812 0.565903 12.2077C1.25308 12.8013 1.3568 12.9068 1.7328 13.3949C2.38108 14.2392 3.75543 14.2523 4.42964 13.4213C4.61116 13.1971 4.76675 12.9596 4.76675 12.8937C4.76675 12.8277 5.60951 12.7749 6.71159 12.7749H8.65642V18.4735V24.1852L8.28042 24.4095C7.10055 25.0822 7.16538 26.9686 8.38415 27.6149C8.59159 27.7205 8.85091 27.9579 8.9676 28.1426C9.27877 28.6175 9.94001 29 10.4457 29C11.0551 29 11.7552 28.6306 12.0275 28.169C12.1571 27.9579 12.4424 27.6677 12.6628 27.5358C13.8556 26.7971 13.8686 25.2537 12.6887 24.3699L12.2868 24.0665V18.4207V12.7749H14.2057H16.1116L16.3969 13.2234C16.7988 13.8566 17.6805 14.1864 18.3676 13.9753C18.7955 13.8566 19.5345 13.2102 19.6901 12.8145C19.7161 12.7617 19.9105 12.6166 20.118 12.5111C20.6625 12.2341 21.0126 11.5482 20.9997 10.849C20.9997 10.1499 20.7274 9.68822 20.131 9.33206C19.8846 9.18696 19.5864 8.87037 19.4438 8.63293C18.7825 7.48531 16.9803 7.52488 16.332 8.69889L16.1116 9.08143L14.2316 9.05505L12.3516 9.01547L12.3127 6.94447L12.2868 4.88666L12.7276 4.60964C13.8815 3.88413 13.8297 2.14291 12.6369 1.43059C12.4035 1.29868 12.1182 1.00847 12.0015 0.797413C11.5477 0.0323296 10.3808 -0.244684 9.60291 0.243387Z"/>
</svg>
