<svg xmlns="http://www.w3.org/2000/svg" width="36" height="36" viewBox="0 0 36 36"><rect width="36" height="36" fill="none"/><g transform="translate(1.5 4.5)"><path d="M12.75,19.5A6.75,6.75,0,1,0,6,12.75,6.75,6.75,0,0,0,12.75,19.5Zm0-10.5A3.75,3.75,0,1,1,9,12.75,3.75,3.75,0,0,1,12.75,9Z" transform="translate(-3 -6)" fill="#fff"/><path d="M33.25,20.5A5.25,5.25,0,1,0,28,15.25a5.25,5.25,0,0,0,5.25,5.25Zm0-7.5A2.25,2.25,0,1,1,31,15.25,2.175,2.175,0,0,1,33.25,13Z" transform="translate(-8.5 -7)" fill="#fff"/><path d="M35,28.549l-.675-.45a14.7,14.7,0,0,0-15.15,0l-.6.45A18.45,18.45,0,0,0,12.5,27.5a17.55,17.55,0,0,0-9.825,2.925L2,30.874V36.5A1.5,1.5,0,0,0,3.5,38h18A1.5,1.5,0,0,0,23,36.5V35H33.5A1.5,1.5,0,0,0,35,33.5ZM20,35H5V32.524A14.625,14.625,0,0,1,12.5,30.5,14.625,14.625,0,0,1,20,32.524Zm12-3H23V30.874l-.675-.45-.45-.3A11.475,11.475,0,0,1,32,30.274Z" transform="translate(-2 -10.999)" fill="#fff"/></g></svg>