<svg xmlns="http://www.w3.org/2000/svg" viewBox="0 0 30 30">
  <path d="M15.05 2.707h5.69a7.15 7.15 0 0 1 2.6.526 4.885 4.885 0 0 1 2.669 2.855c.315.894.481 1.834.491 2.782.07 1.58.07 2.106.07 6.088 0 3.983 0 4.511-.07 6.089a8.624 8.624 0 0 1-.491 2.781 4.884 4.884 0 0 1-2.67 2.857 7.149 7.149 0 0 1-2.6.527H9.36a7.15 7.15 0 0 1-2.599-.517 4.885 4.885 0 0 1-2.669-2.857 8.627 8.627 0 0 1-.492-2.782c-.07-1.58-.07-2.106-.07-6.088 0-3.983 0-4.511.07-6.089a8.626 8.626 0 0 1 .492-2.79 4.885 4.885 0 0 1 2.67-2.858 7.15 7.15 0 0 1 2.599-.526h5.69m0-2.705H9.29a11.84 11.84 0 0 0-3.443.676 7.057 7.057 0 0 0-2.459 1.88 6.445 6.445 0 0 0-1.615 2.632 11.57 11.57 0 0 0-.703 3.684C1 10.452 1 10.978 1 15.038c0 4.06 0 4.59.07 6.165a11.57 11.57 0 0 0 .703 3.684 6.445 6.445 0 0 0 1.615 2.632 5.954 5.954 0 0 0 2.46 1.729 9.61 9.61 0 0 0 3.441.75H20.81a9.61 9.61 0 0 0 3.442-.75 5.954 5.954 0 0 0 2.46-1.73 7.556 7.556 0 0 0 1.685-2.631c.371-1.195.584-2.434.632-3.684.07-1.58.07-2.105.07-6.165 0-4.06 0-4.59-.07-6.165a14.306 14.306 0 0 0-.632-3.684 7.557 7.557 0 0 0-1.686-2.632A7.03 7.03 0 0 0 24.252.75 11.84 11.84 0 0 0 20.81.075h-5.76"/>
  <path d="M15.05 7.294a7.502 7.502 0 0 0-7.236 7.744 7.502 7.502 0 0 0 7.236 7.744 7.503 7.503 0 0 0 7.235-7.744 7.503 7.503 0 0 0-7.235-7.744Zm0 12.782a4.881 4.881 0 0 1-4.707-5.038A4.88 4.88 0 0 1 15.05 10a4.881 4.881 0 0 1 4.706 5.037 4.881 4.881 0 0 1-4.706 5.038Zm9.202-13.083a1.686 1.686 0 1 1-1.686-1.805 1.749 1.749 0 0 1 1.686 1.805Z"/>
</svg>