<svg width="17" height="17" viewBox="0 0 17 17" fill="none" xmlns="http://www.w3.org/2000/svg">
<path d="M4.59367 16.9988H1.22278V5.66667H4.59367V16.9988ZM2.91013 4.11613C1.84684 4.08335 1 3.15813 1 2.02771C1 0.908221 1.85443 0 2.90886 0C3.96329 0 4.81772 0.908221 4.81772 2.02771C4.81772 3.15813 3.97342 4.08335 2.91013 4.11613ZM16.9987 16.9988H13.6873V11.4523C13.6873 10.141 13.6873 8.47025 11.9468 8.47025C10.2076 8.47025 9.98228 9.90179 9.98228 11.3928V16.9988H6.67089V5.66667H9.81392V7.21841H9.86962C10.5152 6.03093 11.7241 5.31941 13.0139 5.36919C16.381 5.36919 17 7.69559 17 10.7967V17L16.9987 16.9988Z" />
</svg>
