<svg viewBox="0 0 10.926 17.103" xmlns="http://www.w3.org/2000/svg">
<g transform="translate(0)" data-name="Icons-Question Mark">
<g fill="#fff" data-name="Group 802">
<path transform="translate(-12.499 -5.994)" d="M18.1,6a5.32,5.32,0,0,0-3.943,1.567,5.225,5.225,0,0,0-1.663,3.9,1.188,1.188,0,1,0,2.375,0,3.088,3.088,0,0,1,.95-2.233,2.945,2.945,0,0,1,2.233-.855,3.088,3.088,0,0,1,.475,6.128,2.09,2.09,0,0,0-1.758,2.09v1.52a1.188,1.188,0,0,0,2.375,0V16.78a5.51,5.51,0,0,0,4.275-5.462A5.558,5.558,0,0,0,18.1,6Z" data-name="Path 166"/>
<circle transform="translate(4.276 14.728)" cx="1.188" cy="1.188" r="1.188" data-name="Ellipse 24"/>
</g>
</g>
</svg>
