<svg xmlns="http://www.w3.org/2000/svg" viewBox="0 0 20.982 18">
  <path id="Icon_ionic-logo-vimeo" data-name="Icon ionic-logo-vimeo" d="M23.093,6.842a2.669,2.669,0,0,0-1.9-2.169,5.434,5.434,0,0,0-4.408.787,7.449,7.449,0,0,0-2.52,3.926,3.538,3.538,0,0,1,1.827-.323,1.194,1.194,0,0,1,1.166,1.185,3.263,3.263,0,0,1-.169,1.3,13.719,13.719,0,0,1-2.23,3.785,3.373,3.373,0,0,1-.468.464c-.478.389-.881.286-1.19-.244a6.562,6.562,0,0,1-.571-1.363,43.7,43.7,0,0,1-1.115-5.7,6.966,6.966,0,0,0-.843-2.665A2.258,2.258,0,0,0,8.328,4.795,5.853,5.853,0,0,0,6.089,6.031s-2.623,2.2-3.832,3.345l.993,1.265s.839-.586,1.288-.857a.666.666,0,0,1,.806.009,2.567,2.567,0,0,1,.576.661,8.922,8.922,0,0,1,.689,1.565c.618,2.075,1.195,4.155,1.771,6.244a8.937,8.937,0,0,0,1.312,2.979,2.51,2.51,0,0,0,3.321,1.007A9.451,9.451,0,0,0,16.1,20.192a31.463,31.463,0,0,0,4.005-4.741,22.04,22.04,0,0,0,2.408-4.075A7.224,7.224,0,0,0,23.093,6.842Z" transform="translate(-2.257 -4.499)"/>
</svg>
