<svg width="110" height="150" viewBox="0 0 110 150" fill="none" xmlns="http://www.w3.org/2000/svg">
<path d="M50.301 1.2589C49.0785 1.94121 47.5844 3.37402 46.9731 4.32924C46.3619 5.28447 45.0036 6.5126 43.917 7.05844C37.5329 10.4017 37.1934 20.1586 43.3736 23.6383L45.3432 24.7982V35.8514V46.9729H35.6313H25.9195L24.3575 44.8578C21.3013 40.764 16.2077 38.99 12.5403 40.9005C10.4349 41.9921 7.31081 44.9942 7.31081 45.9495C7.31081 46.3588 6.22417 47.2458 4.93379 47.8599C1.33429 49.5656 -0.295664 52.636 0.0439105 57.1392C0.247655 60.4824 0.58723 61.0965 2.96425 63.1434C6.56374 66.2137 7.10706 66.7596 9.0766 69.2841C12.4723 73.6508 19.6713 73.719 23.2029 69.4205C24.1537 68.2606 24.9687 67.0325 24.9687 66.6913C24.9687 66.3502 29.3832 66.0773 35.1559 66.0773H45.3432V95.5526V125.096L43.3736 126.256C37.1934 129.736 37.5329 139.493 43.917 142.836C45.0036 143.382 46.3619 144.61 46.9731 145.565C48.6031 148.021 52.0667 150 54.7154 150C57.9074 150 61.5748 148.09 63.001 145.702C63.6802 144.61 65.1743 143.109 66.3289 142.426C72.577 138.606 72.645 130.623 66.4647 126.051L64.3593 124.482V95.2797V66.0773H74.4108H84.3942L85.8884 68.3971C87.9937 71.6721 92.612 73.3779 96.2114 72.2862C98.4526 71.6721 102.324 68.3289 103.139 66.282C103.275 66.009 104.293 65.2585 105.38 64.7127C108.232 63.2798 110.066 59.7319 109.998 56.1157C109.998 52.4995 108.572 50.1115 105.448 48.2693C104.157 47.5187 102.595 45.8812 101.848 44.6531C98.3847 38.7171 88.9445 38.9218 85.5488 44.9942L84.3942 46.9729L74.5466 46.8364L64.6989 46.6318L64.4952 35.9197L64.3593 25.2758L66.6684 23.843C72.7129 20.0903 72.4412 11.084 66.193 7.39958C64.9706 6.71729 63.4765 5.21623 62.8652 4.12456C60.4882 0.167221 54.3759 -1.26561 50.301 1.2589Z" fill="#C67936"/>
</svg>
